<?xml version="1.0" encoding="UTF-8"?>
<svg xmlns="http://www.w3.org/2000/svg" viewBox="0 0 256 256" role="img" aria-label="Digital Resiliency Assessment">
  <defs>
    <linearGradient id="g0" x1="0" y1="0" x2="1" y2="1">
      <stop offset="0" stop-color="#7ef0cc"/>
      <stop offset="0.55" stop-color="#2fd0b7"/>
      <stop offset="1" stop-color="#0b4b55"/>
    </linearGradient>
    <linearGradient id="g1" x1="0" y1="1" x2="1" y2="0">
      <stop offset="0" stop-color="#0a2e35"/>
      <stop offset="1" stop-color="#1f6d74"/>
    </linearGradient>
    <filter id="s" x="-20%" y="-20%" width="140%" height="140%">
      <feDropShadow dx="0" dy="6" stdDeviation="8" flood-color="#07181b" flood-opacity="0.35"/>
    </filter>
  </defs>

  <!-- Outer shield -->
  <path
    d="M128 18c30 18 63 23 92 26v82c0 63-40 103-92 120C76 229 36 189 36 126V44c29-3 62-8 92-26z"
    fill="url(#g1)"
    filter="url(#s)"
  />

  <!-- Inner layered lines (evokes the left icons stacked shield) -->
  <path
    d="M128 42c22 12 47 16 70 19v62c0 48-30 78-70 92-40-14-70-44-70-92V61c23-3 48-7 70-19z"
    fill="none"
    stroke="url(#g0)"
    stroke-width="10"
    stroke-linejoin="round"
    opacity="0.95"
  />
  <path
    d="M128 58c18 10 38 13 56 16v48c0 38-23 61-56 72-33-11-56-34-56-72V74c18-3 38-6 56-16z"
    fill="none"
    stroke="#1fe1c7"
    stroke-width="6"
    stroke-linejoin="round"
    opacity="0.55"
  />

  <!-- Stylized 'R' with upward arrow accent -->
  <path
    d="M104 168V88h44c18 0 30 11 30 28 0 14-9 24-22 27l24 25h-26l-21-23h-7v23h-22zm22-41h18c8 0 12-4 12-11s-4-11-12-11h-18v22z"
    fill="#d8fff7"
    opacity="0.95"
  />
  <path
    d="M146 98l28 0-10-10 10-10 27 27-27 27-10-10 10-10-18 0c-12 0-22 10-22 22v18h-14v-18c0-20 16-36 36-36z"
    fill="url(#g0)"
    opacity="0.9"
  />
</svg>

