<?xml version="1.0" encoding="UTF-8"?>
<!--
  Placeholder "book cover" graphic.
  The actual Amazon cover art is copyrighted; don't embed it without rights.
-->
<svg xmlns="http://www.w3.org/2000/svg" viewBox="0 0 420 640" role="img" aria-label="In Zero Trust We Trust (reference)">
  <defs>
    <linearGradient id="bg" x1="0" y1="0" x2="1" y2="1">
      <stop offset="0" stop-color="#0a2e35"/>
      <stop offset="0.5" stop-color="#0f3d45"/>
      <stop offset="1" stop-color="#061f24"/>
    </linearGradient>
    <linearGradient id="accent" x1="0" y1="1" x2="1" y2="0">
      <stop offset="0" stop-color="#7ef0cc"/>
      <stop offset="1" stop-color="#2fd0b7"/>
    </linearGradient>
    <filter id="shadow" x="-20%" y="-20%" width="140%" height="140%">
      <feDropShadow dx="0" dy="10" stdDeviation="14" flood-color="#07181b" flood-opacity="0.35"/>
    </filter>
  </defs>

  <rect x="32" y="28" width="356" height="584" rx="24" fill="url(#bg)" filter="url(#shadow)"/>

  <path d="M70 120h280" stroke="rgba(255,255,255,0.12)" stroke-width="2"/>
  <path d="M70 500h280" stroke="rgba(255,255,255,0.12)" stroke-width="2"/>

  <g fill="#d8fff7" opacity="0.95" font-family="system-ui, -apple-system, Segoe UI, Roboto, sans-serif">
    <text x="76" y="178" font-size="18" letter-spacing="3" opacity="0.75">REFERENCE BOOK</text>
    <text x="76" y="244" font-size="56" font-weight="700">In</text>
    <text x="76" y="310" font-size="56" font-weight="700">Zero Trust</text>
    <text x="76" y="376" font-size="56" font-weight="700">We Trust</text>
    <text x="76" y="430" font-size="18" opacity="0.8">Assessment framing and terminology</text>
  </g>

  <g>
    <path d="M92 92c44-12 96-36 118-58 22 22 74 46 118 58v112c0 88-56 144-118 168-62-24-118-80-118-168V92z"
      transform="translate(0,190) scale(0.9)"
      fill="none"
      stroke="url(#accent)"
      stroke-width="10"
      stroke-linejoin="round"
      opacity="0.9"
    />
  </g>
</svg>

